# xmcd
#
# Track frame offsets: 
#        150
#        32341
#        76576
#        93642
#        113311
#        143284
#        160683
#        199592
#        222121
#        237417
#        251854
#        254753
#
# Disc length: 4083 seconds
#
# Revision: 0
# Processed by: cddbd v1.5.1PL0 Copyright (c) Steve Scherf et al.
# Submitted via: ExactAudioCopy v0.95a5
#
DISCID=900ff10c
DTITLE=Gröning and Schill - Herr Schill and Der Unglaubliche Heinz
DYEAR=1900
DGENRE=Cabaret
TTITLE0=Aller Anfang ist schwer
TTITLE1=Single-Aufbauprogramm Teil 1
TTITLE2=Single-Schlussverkauf: Egon
TTITLE3=Einleitung Förster
TTITLE4=Jäger aus Kurpfalz
TTITLE5=Single-Schlussverkauf Hermann
TTITLE6=Single-Aufbauprogramm Teil 2 u. Traum
TTITLE7=Single-Schlussverkauf: Der Dichter
TTITLE8=Single-Aufbauprogramm Teil 3
TTITLE9=Geh mir doch weg
TTITLE10=Schlusswort
TTITLE11=Translation Blues
EXTD=
EXTT0=
EXTT1=
EXTT2=
EXTT3=
EXTT4=
EXTT5=
EXTT6=
EXTT7=
EXTT8=
EXTT9=
EXTT10=
EXTT11=
PLAYORDER=
